<svg xmlns="http://www.w3.org/2000/svg" viewBox="0 0 16 16" width="16" height="16">
	<style>
        g { fill: #ffa500; }
        @media (prefers-color-scheme: dark) {
            g { fill: #fff; }
        }
    </style>
	<g>
		<path d="M4.6,7.4H3.7V7h1.7l-1,1.7h1V9H3.6L4.6,7.4z"/>
		<path d="M7.7,8.6c-0.3,0.3-0.6,0.5-1,0.5C6,9.1,5.6,8.6,5.6,8S6,6.9,6.8,6.9c0.4,0,1.1,0.4,1.1,1.2v0.1H6.1c0,0.3,0.3,0.5,0.6,0.5 c0.2,0,0.4-0.1,0.6-0.3L7.7,8.6z M7.3,7.8C7.2,7.5,7,7.3,6.7,7.3c-0.3,0-0.5,0.2-0.6,0.5H7.3z"/>
		<path d="M8.3,7h0.4v1.2c0,0.3,0.2,0.5,0.5,0.5c0.3,0,0.5-0.2,0.5-0.5V7h0.4v1.2c0,0.6-0.5,0.9-1,0.9c-0.5,0-1-0.4-1-0.9V7z"/>
		<path d="M10.9,8.4c0.2,0.2,0.4,0.3,0.7,0.3c0.3,0,0.4-0.1,0.4-0.3c0-0.1-0.1-0.2-0.3-0.2l-0.3,0c-0.6-0.1-0.8-0.3-0.8-0.6 c0-0.4,0.3-0.7,0.8-0.7c0.3,0,0.5,0.1,0.8,0.3l-0.3,0.3c-0.2-0.2-0.4-0.2-0.6-0.2c-0.2,0-0.4,0.1-0.4,0.3c0,0.1,0.1,0.2,0.3,0.2 l0.5,0.1c0.4,0.1,0.6,0.2,0.6,0.6c0,0.3-0.3,0.7-0.9,0.7c-0.4,0-0.7-0.1-0.9-0.4L10.9,8.4z"/>
		<path d="M13.7,2.3L13.7,2.3c-0.1-0.1-0.1-0.1-0.2-0.2l-1.6,1.7C11.9,3.9,11.9,4,12,4v0c1.1,1.1,1.7,2.5,1.7,4c0,1.5-0.6,2.9-1.7,4 c-1.1,1.1-2.5,1.7-4,1.7S5.1,13.1,4,12l0,0c0,0-0.1-0.1-0.1-0.1l-1.7,1.6c0.1,0.1,0.1,0.1,0.2,0.2l0,0C3.9,15.2,5.9,16,8,16 c2.1,0,4.1-0.8,5.7-2.3C15.2,12.1,16,10.1,16,8C16,5.9,15.2,3.9,13.7,2.3z"/>
		<path d="M6.1,2.7L5.4,0.4C5.2,0.5,5,0.6,4.8,0.7l0.9,2.2C5.9,2.8,6,2.7,6.1,2.7z"/>
		<path d="M8,2.4L8,0C7.8,0,7.6,0,7.4,0l0.2,2.3C7.7,2.4,7.8,2.4,8,2.4z"/>
		<path d="M5.3,3L4.2,1C4,1.1,3.8,1.2,3.6,1.3l1.3,2C5,3.2,5.2,3.1,5.3,3z"/>
		<path d="M4.5,3.6L3.1,1.7C2.9,1.8,2.7,2,2.6,2.1l1.6,1.7C4.3,3.7,4.4,3.6,4.5,3.6z"/>
		<path d="M11.4,3.5l1.4-1.9c-0.2-0.1-0.3-0.2-0.5-0.3l-1.3,2C11.2,3.4,11.3,3.4,11.4,3.5z"/>
		<path d="M10.7,3l1.1-2.1c-0.2-0.1-0.3-0.2-0.5-0.3l-1,2.2C10.4,2.9,10.5,3,10.7,3z"/>
		<path d="M9.3,0.1C9.1,0.1,8.9,0,8.7,0L8.5,2.4c0.1,0,0.3,0,0.4,0.1L9.3,0.1z"/>
		<path d="M10.6,0.4c-0.2-0.1-0.4-0.1-0.6-0.2L9.4,2.5c0.1,0,0.3,0.1,0.4,0.1L10.6,0.4z"/>
		<path d="M7,2.4L6.6,0.1c-0.2,0-0.4,0.1-0.6,0.1l0.6,2.3C6.8,2.5,6.9,2.5,7,2.4z"/>
		<path d="M2.4,8.5L0,8.7c0,0.2,0,0.4,0.1,0.6l2.3-0.4C2.4,8.8,2.4,8.6,2.4,8.5z"/>
		<path d="M2.5,9.4L0.3,10c0,0.2,0.1,0.4,0.2,0.6l2.2-0.8C2.6,9.7,2.6,9.5,2.5,9.4z"/>
		<path d="M3.8,4.2L2.1,2.6C2,2.8,1.8,2.9,1.7,3.1l1.9,1.5C3.6,4.4,3.7,4.3,3.8,4.2z"/>
		<path d="M3.3,11.1l-2,1.3c0.1,0.2,0.2,0.3,0.3,0.5l1.9-1.4C3.4,11.3,3.4,11.2,3.3,11.1z"/>
		<path d="M2.8,10.3l-2.2,1c0.1,0.2,0.2,0.4,0.3,0.5L3,10.7C3,10.5,2.9,10.4,2.8,10.3z"/>
		<path d="M2.8,5.8L0.7,4.8C0.6,5,0.5,5.2,0.4,5.4l2.2,0.8C2.7,6,2.8,5.9,2.8,5.8z"/>
		<path d="M2.4,7.6L0,7.4C0,7.6,0,7.8,0,8l2.4,0C2.4,7.8,2.4,7.7,2.4,7.6z"/>
		<path d="M3.3,4.9l-2-1.3C1.2,3.8,1.1,4,1,4.2L3,5.3C3.1,5.2,3.2,5.1,3.3,4.9z"/>
		<path d="M2.5,6.6L0.2,6.1c0,0.2-0.1,0.4-0.1,0.6L2.4,7C2.5,6.9,2.5,6.8,2.5,6.6z"/>
	</g>
</svg>